<svg xmlns="http://www.w3.org/2000/svg" width="13.217" height="13.498" viewBox="0 0 13.217 13.498">
    <g>
        <path fill="#d0e8ef" d="M1.354 13.5a.331.331 0 0 1-.215-.578 4.986 4.986 0 0 0 1.091-1.358A6.546 6.546 0 0 1 .015 7.053 6.608 6.608 0 0 1 13.2 6.161a6.675 6.675 0 0 1-5.42 6.973 6.535 6.535 0 0 1-3.534-.334 5.615 5.615 0 0 1-2.79.7z" transform="translate(-4452.006 3475) translate(4452.006 -3475)"/>
        <path fill="#303141" d="M2.2-33.66a.5.5 0 0 1 .363.153.5.5 0 0 1 .153.363.5.5 0 0 1-.153.363.5.5 0 0 1-.363.153.5.5 0 0 1-.363-.153.5.5 0 0 1-.153-.363.5.5 0 0 1 .153-.363.5.5 0 0 1 .363-.153zm.42 5.426a.6.6 0 0 0 .137.456.707.707 0 0 0 .476.125v.17q-.743-.032-.977-.032t-.977.032v-.17a.707.707 0 0 0 .476-.125.6.6 0 0 0 .137-.456v-2.527a.858.858 0 0 0-.137-.541.582.582 0 0 0-.476-.17v-.17q.258.024.5.024a2.638 2.638 0 0 0 .84-.113z" transform="translate(-4452.006 3475) translate(4456.459 -3437.759)"/>
    </g>
</svg>
